<svg width="48" height="48" fill="none" xmlns="http://www.w3.org/2000/svg"><g clip-path="url(#a)"><path d="M7.5 1.5A1.5 1.5 0 0 1 9 0h30a1.5 1.5 0 0 1 1.5 1.5c0 1.614-.036 3.15-.102 4.608a9 9 0 1 1-3.399 17.67c-2.37 5.595-5.634 8.331-8.499 9.033v6.519l4.275 1.068a4.483 4.483 0 0 1 1.611.765L39.9 45.3A1.5 1.5 0 0 1 39 48H9a1.5 1.5 0 0 1-.9-2.7l5.514-4.137a4.483 4.483 0 0 1 1.611-.765L19.5 39.33v-6.519c-2.865-.702-6.129-3.438-8.499-9.036a9 9 0 1 1-3.396-17.67A99.248 99.248 0 0 1 7.5 1.5Zm.297 7.62a6 6 0 1 0 2.16 11.805c-.999-3.15-1.764-7.038-2.16-11.805Zm30.249 11.805a6 6 0 1 0 2.16-11.805c-.399 4.77-1.164 8.655-2.16 11.805ZM10.512 3c.021 1.551.078 3.018.168 4.407.39 6.084 1.371 10.638 2.61 14.001C15.882 28.44 19.452 30 21 30a1.5 1.5 0 0 1 1.5 1.5v7.83a3 3 0 0 1-2.271 2.91l-4.278 1.068a1.5 1.5 0 0 0-.537.255L13.5 45h21l-1.914-1.437a1.502 1.502 0 0 0-.54-.255l-4.275-1.068a3 3 0 0 1-2.271-2.91V31.5A1.5 1.5 0 0 1 27 30c1.548 0 5.118-1.56 7.71-8.592 1.239-3.36 2.22-7.92 2.61-14.001.09-1.389.147-2.856.168-4.407H10.512Z" fill="#fff"/></g><defs><clipPath id="a"><path fill="#fff" d="M0 0h48v48H0z"/></clipPath></defs></svg>
