<svg width="48" height="48" fill="none" xmlns="http://www.w3.org/2000/svg"><g clip-path="url(#a)"><path fill-rule="evenodd" clip-rule="evenodd" d="M37.479 40.104a21 21 0 1 1 7.467-14.574 6.875 6.875 0 0 1 2.925.984 24 24 0 1 0-7.962 15.456 25.74 25.74 0 0 1-2.43-1.866Zm-11.193-9.66c-1.12.269-2.229.587-3.321.954a1.5 1.5 0 1 1-.93-2.85c1.14-.375 2.406-.762 3.576-1.029 1.11-.258 2.34-.459 3.309-.324.48.066 1.182.255 1.683.858.564.678.561 1.491.393 2.115a5.676 5.676 0 0 1-.93 1.779c-.231.321-.504.66-.825 1.029.321.372.597.72.828 1.041.426.591.768 1.191.93 1.785.165.624.168 1.437-.396 2.118-.504.6-1.212.786-1.689.852-.969.129-2.199-.081-3.306-.339a44.631 44.631 0 0 1-3.573-1.035 1.5 1.5 0 1 1 .93-2.85c1.113.36 2.283.72 3.327.963.528.123.975.207 1.338.252a16.837 16.837 0 0 0-1.506-1.752 1.5 1.5 0 0 1 .006-2.085c.54-.542 1.04-1.12 1.5-1.731-.452.06-.9.144-1.344.249Zm2.298-.261-.009-.003-.009-.003c.012 0 .018.006.018.006Zm.006 5.601-.018.003a.112.112 0 0 1 .018-.006v.003ZM18 24c1.656 0 3-2.016 3-4.5S19.656 15 18 15s-3 2.016-3 4.5 1.344 4.5 3 4.5Zm8.271-1.689a1.502 1.502 0 0 0 2.04-.582 2.803 2.803 0 0 1 2.439-1.479c1.017 0 1.935.57 2.439 1.479a1.5 1.5 0 1 0 2.622-1.458 5.802 5.802 0 0 0-5.061-3.021c-2.19 0-4.068 1.236-5.061 3.021a1.502 1.502 0 0 0 .582 2.04ZM42 29.484c3.33-3.42 11.652 2.568 0 10.266-11.652-7.698-3.33-13.686 0-10.263v-.003Z" fill="#fff"/></g><defs><clipPath id="a"><path fill="#fff" d="M0 0h48v48H0z"/></clipPath></defs></svg>
