<svg width="48" height="48" fill="none" xmlns="http://www.w3.org/2000/svg"><g clip-path="url(#a)" fill="#fff"><path d="M18 .834a2.304 2.304 0 0 1 .24 2.574 21.624 21.624 0 0 0-2.634 10.38c0 12.063 9.834 21.831 21.954 21.831 1.581 0 3.12-.165 4.599-.48a2.36 2.36 0 0 1 2.43.948 2.199 2.199 0 0 1-.093 2.679A25.048 25.048 0 0 1 25.032 48C11.202 48 0 36.858 0 23.13 0 12.798 6.342 3.936 15.372.18A2.256 2.256 0 0 1 18 .834Zm-3.426 3.099A21.807 21.807 0 0 0 3.075 23.13c0 12.06 9.837 21.828 21.957 21.828a21.95 21.95 0 0 0 15.615-6.486 24.94 24.94 0 0 1-3.087.189c-13.83 0-25.029-11.142-25.029-24.87 0-3.501.726-6.834 2.043-9.858Z"/><path d="M32.382 9.444a.651.651 0 0 1 1.236 0l1.161 3.486a5.207 5.207 0 0 0 3.291 3.291l3.486 1.161a.651.651 0 0 1 0 1.236l-3.486 1.161a5.202 5.202 0 0 0-3.291 3.291l-1.161 3.486a.651.651 0 0 1-1.236 0l-1.161-3.486a5.202 5.202 0 0 0-3.291-3.291l-3.486-1.161a.651.651 0 0 1 0-1.236l3.486-1.161a5.203 5.203 0 0 0 3.291-3.291l1.161-3.486ZM41.589.297a.435.435 0 0 1 .822 0l.774 2.322a3.464 3.464 0 0 0 2.196 2.196l2.322.774a.435.435 0 0 1 0 .822l-2.322.774a3.468 3.468 0 0 0-2.196 2.196l-.774 2.322a.435.435 0 0 1-.822 0l-.774-2.322a3.468 3.468 0 0 0-2.196-2.196l-2.322-.774a.435.435 0 0 1 0-.822l2.322-.774a3.464 3.464 0 0 0 2.196-2.196L41.589.3V.297Z"/></g><defs><clipPath id="a"><path fill="#fff" d="M0 0h48v48H0z"/></clipPath></defs></svg>
